<?xml version="1.0" encoding="UTF-8"?>
<svg id="_图层_1" data-name="图层 1" xmlns="http://www.w3.org/2000/svg" viewBox="0 0 7.2 7.02">
  <defs>
    <style>
      .cls-1 {
        fill: #1f2228;
        stroke-width: 0px;
      }
    </style>
  </defs>
  <path class="cls-1" d="M3.6,0c1.99,0,3.6,1.61,3.6,3.6,0,1.55-.99,2.92-2.45,3.42-.18.04-.25-.08-.25-.17,0-.12,0-.51,0-.99,0-.34-.11-.55-.24-.67.8-.09,1.64-.4,1.64-1.78,0-.4-.14-.72-.37-.97.04-.09.16-.46-.04-.95,0,0-.3-.1-.99.37-.29-.08-.59-.12-.9-.12s-.61.04-.9.12c-.69-.46-.99-.37-.99-.37-.2.5-.07.86-.04.95-.23.25-.37.58-.37.97,0,1.38.84,1.69,1.64,1.78-.1.09-.2.25-.23.48-.21.09-.72.25-1.05-.3-.07-.11-.27-.37-.55-.37-.3,0-.12.17,0,.24.15.09.33.41.37.51.07.2.31.59,1.21.42,0,.3,0,.59,0,.67,0,.09-.07.2-.25.17C.99,6.53,0,5.15,0,3.6,0,1.61,1.61,0,3.6,0Z"/>
</svg>